# Blender v2.90.1 OBJ File: 'mapping.blend'
# www.blender.org
mtllib mapping.mtl
o Plane
v -1.000000 0.000000 1.000000
v -1.000000 0.000000 1.000000
v -1.000000 0.000000 -3.000000
v 3.000000 1.000000 -1.000000
v 3.000000 1.000000 1.000000
v 5.000000 1.000000 1.000000
v 5.000000 1.000000 -1.000000
v 5.000000 2.000000 -1.000000
v 5.000000 2.000000 1.000000
v 7.000000 2.000000 1.000000
v 7.000000 2.000000 -1.000000
v 11.000000 4.000000 -1.000000
v 11.000000 4.000000 1.000000
v 13.000000 4.000000 1.000000
v 13.000000 4.000000 -1.000000
v 19.000000 0.000000 1.000000
v 19.000000 0.000000 -3.000000
v 17.000000 5.000000 -1.000000
v 17.000000 5.000000 1.000000
v 19.000000 5.000000 1.000000
v 19.000000 5.000000 -1.000000
v -1.000000 0.000000 -3.000000
v 19.000000 0.000000 -3.000000
v -1.000000 0.000000 -3.000000
v 19.000000 0.000000 -3.000000
v -1.000000 6.000000 -3.000000
v 19.000000 6.000000 -3.000000
vt -0.003369 0.002122
vt 0.943405 0.002122
vt 0.943405 0.338753
vt -0.003369 0.338753
vt 0.941869 0.649077
vt 0.919750 0.649077
vt 0.919750 0.619586
vt 0.941869 0.619586
vt 0.941869 0.590074
vt 0.941869 0.619566
vt 0.919750 0.619566
vt 0.919750 0.590074
vt 0.919730 0.649077
vt 0.897611 0.649077
vt 0.897611 0.619586
vt 0.919730 0.619586
vt 0.919730 0.619566
vt 0.897611 0.619566
vt 0.897611 0.590074
vt 0.919730 0.590074
vt 0.998364 0.345888
vt 0.998364 0.880211
vt -0.003492 0.880211
vt -0.003492 0.345888
vn 0.0000 1.0000 0.0000
vn 0.0000 0.0000 1.0000
usemtl Material.001
s off
f 2/1/1 16/2/1 25/3/1 24/4/1
f 5/5/1 6/6/1 7/7/1 4/8/1
f 9/9/1 10/10/1 11/11/1 8/12/1
f 13/13/1 14/14/1 15/15/1 12/16/1
f 19/17/1 20/18/1 21/19/1 18/20/1
f 25/21/2 27/22/2 26/23/2 24/24/2
l 2 1
