# Blender v2.90.1 OBJ File: 'mapping.blend'
# www.blender.org
mtllib mapping.mtl
o Plane
v -1.000000 0.000000 1.000000
v 1.000000 0.000000 1.000000
v -1.000000 0.000000 -1.000000
v 1.000000 0.000000 -1.000000
v -1.000000 0.000000 -1.000000
v -1.000000 0.000000 1.000000
v 1.000000 0.000000 1.000000
v 1.000000 0.000000 -1.000000
v 1.000000 0.000000 -1.000000
v 1.000000 0.000000 1.000000
v 3.000000 0.000000 1.000000
v 3.000000 0.000000 -1.000000
v 3.000000 0.000000 -1.000000
v 3.000000 0.000000 1.000000
v 5.000000 0.000000 1.000000
v 5.000000 0.000000 -1.000000
v 5.000000 0.000000 -1.000000
v 5.000000 0.000000 1.000000
v 7.000000 0.000000 1.000000
v 7.000000 0.000000 -1.000000
v -1.000000 0.000000 -3.000000
v -1.000000 0.000000 -1.000000
v 1.000000 0.000000 -1.000000
v 1.000000 0.000000 -3.000000
v 1.000000 0.000000 -3.000000
v 1.000000 0.000000 -1.000000
v 3.000000 0.000000 -1.000000
v 3.000000 0.000000 -3.000000
v 3.000000 0.000000 -3.000000
v 3.000000 0.000000 -1.000000
v 5.000000 0.000000 -1.000000
v 5.000000 0.000000 -3.000000
v 5.000000 0.000000 -3.000000
v 5.000000 0.000000 -1.000000
v 7.000000 0.000000 -1.000000
v 7.000000 0.000000 -3.000000
v 3.000000 1.000000 -1.000000
v 3.000000 1.000000 1.000000
v 5.000000 1.000000 1.000000
v 5.000000 1.000000 -1.000000
v 5.000000 2.000000 -1.000000
v 5.000000 2.000000 1.000000
v 7.000000 2.000000 1.000000
v 7.000000 2.000000 -1.000000
v 7.000000 0.000000 -1.000000
v 7.000000 0.000000 1.000000
v 9.000000 0.000000 1.000000
v 9.000000 0.000000 -1.000000
v 9.000000 0.000000 -1.000000
v 9.000000 0.000000 1.000000
v 11.000000 0.000000 1.000000
v 11.000000 0.000000 -1.000000
v 7.000000 0.000000 -3.000000
v 7.000000 0.000000 -1.000000
v 9.000000 0.000000 -1.000000
v 9.000000 0.000000 -3.000000
v 9.000000 0.000000 -3.000000
v 9.000000 0.000000 -1.000000
v 11.000000 0.000000 -1.000000
v 11.000000 0.000000 -3.000000
v 11.000000 0.000000 -1.000000
v 11.000000 0.000000 1.000000
v 13.000000 0.000000 1.000000
v 13.000000 0.000000 -1.000000
v 13.000000 0.000000 -1.000000
v 13.000000 0.000000 1.000000
v 15.000000 0.000000 1.000000
v 15.000000 0.000000 -1.000000
v 11.000000 0.000000 -3.000000
v 11.000000 0.000000 -1.000000
v 13.000000 0.000000 -1.000000
v 13.000000 0.000000 -3.000000
v 13.000000 0.000000 -3.000000
v 13.000000 0.000000 -1.000000
v 15.000000 0.000000 -1.000000
v 15.000000 0.000000 -3.000000
v 11.000000 4.000000 -1.000000
v 11.000000 4.000000 1.000000
v 13.000000 4.000000 1.000000
v 13.000000 4.000000 -1.000000
v 15.000000 0.000000 -1.000000
v 15.000000 0.000000 1.000000
v 17.000000 0.000000 1.000000
v 17.000000 0.000000 -1.000000
v 17.000000 0.000000 -1.000000
v 17.000000 0.000000 1.000000
v 19.000000 0.000000 1.000000
v 19.000000 0.000000 -1.000000
v 15.000000 0.000000 -3.000000
v 15.000000 0.000000 -1.000000
v 17.000000 0.000000 -1.000000
v 17.000000 0.000000 -3.000000
v 17.000000 0.000000 -3.000000
v 17.000000 0.000000 -1.000000
v 19.000000 0.000000 -1.000000
v 19.000000 0.000000 -3.000000
v 17.000000 5.000000 -1.000000
v 17.000000 5.000000 1.000000
v 19.000000 5.000000 1.000000
v 19.000000 5.000000 -1.000000
v -1.000000 0.000000 -3.000000
v -1.000000 0.000000 -1.000000
v 1.000000 0.000000 -1.000000
v 1.000000 0.000000 -3.000000
v 1.000000 0.000000 -3.000000
v 1.000000 0.000000 -1.000000
v 3.000000 0.000000 -1.000000
v 3.000000 0.000000 -3.000000
v 3.000000 0.000000 -3.000000
v 3.000000 0.000000 -1.000000
v 5.000000 0.000000 -1.000000
v 5.000000 0.000000 -3.000000
v 5.000000 0.000000 -3.000000
v 5.000000 0.000000 -1.000000
v 7.000000 0.000000 -1.000000
v 7.000000 0.000000 -3.000000
v 7.000000 0.000000 -3.000000
v 7.000000 0.000000 -1.000000
v 9.000000 0.000000 -1.000000
v 9.000000 0.000000 -3.000000
v 9.000000 0.000000 -3.000000
v 9.000000 0.000000 -1.000000
v 11.000000 0.000000 -1.000000
v 11.000000 0.000000 -3.000000
v 11.000000 0.000000 -3.000000
v 11.000000 0.000000 -1.000000
v 13.000000 0.000000 -1.000000
v 13.000000 0.000000 -3.000000
v 13.000000 0.000000 -3.000000
v 13.000000 0.000000 -1.000000
v 15.000000 0.000000 -1.000000
v 15.000000 0.000000 -3.000000
v 15.000000 0.000000 -3.000000
v 15.000000 0.000000 -1.000000
v 17.000000 0.000000 -1.000000
v 17.000000 0.000000 -3.000000
v 17.000000 0.000000 -3.000000
v 17.000000 0.000000 -1.000000
v 19.000000 0.000000 -1.000000
v 19.000000 0.000000 -3.000000
v -1.000000 2.000000 -3.000000
v -1.000000 0.000000 -3.000000
v 1.000000 0.000000 -3.000000
v 1.000000 2.000000 -3.000000
v 1.000000 2.000000 -3.000000
v 1.000000 0.000000 -3.000000
v 3.000000 0.000000 -3.000000
v 3.000000 2.000000 -3.000000
v 3.000000 2.000000 -3.000000
v 3.000000 0.000000 -3.000000
v 5.000000 0.000000 -3.000000
v 5.000000 2.000000 -3.000000
v 5.000000 2.000000 -3.000000
v 5.000000 0.000000 -3.000000
v 7.000000 0.000000 -3.000000
v 7.000000 2.000000 -3.000000
v 7.000000 2.000000 -3.000000
v 7.000000 0.000000 -3.000000
v 9.000000 0.000000 -3.000000
v 9.000000 2.000000 -3.000000
v 9.000000 2.000000 -3.000000
v 9.000000 0.000000 -3.000000
v 11.000000 0.000000 -3.000000
v 11.000000 2.000000 -3.000000
v 11.000000 2.000000 -3.000000
v 11.000000 0.000000 -3.000000
v 13.000000 0.000000 -3.000000
v 13.000000 2.000000 -3.000000
v 13.000000 2.000000 -3.000000
v 13.000000 0.000000 -3.000000
v 15.000000 0.000000 -3.000000
v 15.000000 2.000000 -3.000000
v 15.000000 2.000000 -3.000000
v 15.000000 0.000000 -3.000000
v 17.000000 0.000000 -3.000000
v 17.000000 2.000000 -3.000000
v 17.000000 2.000000 -3.000000
v 17.000000 0.000000 -3.000000
v 19.000000 0.000000 -3.000000
v 19.000000 2.000000 -3.000000
v -1.000000 4.000000 -3.000000
v -1.000000 2.000000 -3.000000
v 1.000000 2.000000 -3.000000
v 1.000000 4.000000 -3.000000
v 1.000000 4.000000 -3.000000
v 1.000000 2.000000 -3.000000
v 3.000000 2.000000 -3.000000
v 3.000000 4.000000 -3.000000
v 3.000000 4.000000 -3.000000
v 3.000000 2.000000 -3.000000
v 5.000000 2.000000 -3.000000
v 5.000000 4.000000 -3.000000
v 5.000000 4.000000 -3.000000
v 5.000000 2.000000 -3.000000
v 7.000000 2.000000 -3.000000
v 7.000000 4.000000 -3.000000
v 7.000000 4.000000 -3.000000
v 7.000000 2.000000 -3.000000
v 9.000000 2.000000 -3.000000
v 9.000000 4.000000 -3.000000
v 9.000000 4.000000 -3.000000
v 9.000000 2.000000 -3.000000
v 11.000000 2.000000 -3.000000
v 11.000000 4.000000 -3.000000
v 11.000000 4.000000 -3.000000
v 11.000000 2.000000 -3.000000
v 13.000000 2.000000 -3.000000
v 13.000000 4.000000 -3.000000
v 13.000000 4.000000 -3.000000
v 13.000000 2.000000 -3.000000
v 15.000000 2.000000 -3.000000
v 15.000000 4.000000 -3.000000
v 15.000000 4.000000 -3.000000
v 15.000000 2.000000 -3.000000
v 17.000000 2.000000 -3.000000
v 17.000000 4.000000 -3.000000
v 17.000000 4.000000 -3.000000
v 17.000000 2.000000 -3.000000
v 19.000000 2.000000 -3.000000
v 19.000000 4.000000 -3.000000
v -1.000000 6.000000 -3.000000
v -1.000000 4.000000 -3.000000
v 1.000000 4.000000 -3.000000
v 1.000000 6.000000 -3.000000
v 1.000000 6.000000 -3.000000
v 1.000000 4.000000 -3.000000
v 3.000000 4.000000 -3.000000
v 3.000000 6.000000 -3.000000
v 3.000000 6.000000 -3.000000
v 3.000000 4.000000 -3.000000
v 5.000000 4.000000 -3.000000
v 5.000000 6.000000 -3.000000
v 5.000000 6.000000 -3.000000
v 5.000000 4.000000 -3.000000
v 7.000000 4.000000 -3.000000
v 7.000000 6.000000 -3.000000
v 7.000000 6.000000 -3.000000
v 7.000000 4.000000 -3.000000
v 9.000000 4.000000 -3.000000
v 9.000000 6.000000 -3.000000
v 9.000000 6.000000 -3.000000
v 9.000000 4.000000 -3.000000
v 11.000000 4.000000 -3.000000
v 11.000000 6.000000 -3.000000
v 11.000000 6.000000 -3.000000
v 11.000000 4.000000 -3.000000
v 13.000000 4.000000 -3.000000
v 13.000000 6.000000 -3.000000
v 13.000000 6.000000 -3.000000
v 13.000000 4.000000 -3.000000
v 15.000000 4.000000 -3.000000
v 15.000000 6.000000 -3.000000
v 15.000000 6.000000 -3.000000
v 15.000000 4.000000 -3.000000
v 17.000000 4.000000 -3.000000
v 17.000000 6.000000 -3.000000
v 17.000000 6.000000 -3.000000
v 17.000000 4.000000 -3.000000
v 19.000000 4.000000 -3.000000
v 19.000000 6.000000 -3.000000
vt 0.736901 0.430901
vt 0.736901 0.553099
vt 0.859099 0.553099
vt 0.859099 0.430901
vt 0.270223 0.739758
vt 0.270223 0.807118
vt 0.202863 0.807118
vt 0.202863 0.739758
vt 0.736901 0.553099
vt 0.859099 0.553099
vt 0.859099 0.430901
vt 0.736901 0.430901
vt 0.204700 0.739526
vt 0.204700 0.804501
vt 0.139725 0.804501
vt 0.139725 0.739526
vt 0.139595 0.739526
vt 0.139595 0.804501
vt 0.074620 0.804501
vt 0.074620 0.739526
vt 0.069739 0.739119
vt 0.069739 0.804256
vt 0.004601 0.804256
vt 0.004601 0.739119
vt 0.736901 0.430901
vt 0.859099 0.430901
vt 0.859099 0.553099
vt 0.736901 0.553099
vt 0.736901 0.430901
vt 0.859099 0.430901
vt 0.859099 0.553099
vt 0.736901 0.553099
vt 0.736901 0.430901
vt 0.859099 0.430901
vt 0.859099 0.553099
vt 0.736901 0.553099
vt 0.736901 0.430901
vt 0.859099 0.430901
vt 0.859099 0.553099
vt 0.736901 0.553099
vt 0.140640 0.434640
vt 0.215360 0.434640
vt 0.215360 0.509360
vt 0.140640 0.509360
vt 0.141998 0.433998
vt 0.214003 0.433998
vt 0.214003 0.506002
vt 0.141998 0.506002
vt 0.405212 0.739758
vt 0.405212 0.807118
vt 0.337852 0.807118
vt 0.337852 0.739758
vt 0.337717 0.739758
vt 0.337717 0.807118
vt 0.270358 0.807118
vt 0.270358 0.739758
vt 0.736901 0.430901
vt 0.859099 0.430901
vt 0.859099 0.553099
vt 0.736901 0.553099
vt 0.736901 0.430901
vt 0.859099 0.430901
vt 0.859099 0.553099
vt 0.736901 0.553099
vt 0.135006 0.804256
vt 0.069869 0.804256
vt 0.069869 0.739119
vt 0.135006 0.739119
vt 0.074490 0.739526
vt 0.074490 0.804501
vt 0.009515 0.804501
vt 0.009515 0.739526
vt 0.736901 0.430901
vt 0.859099 0.430901
vt 0.859099 0.553099
vt 0.736901 0.553099
vt 0.736901 0.430901
vt 0.859099 0.430901
vt 0.859099 0.553099
vt 0.736901 0.553099
vt 0.138674 0.432674
vt 0.213326 0.432674
vt 0.213326 0.507326
vt 0.138674 0.507326
vt 0.200274 0.804256
vt 0.135136 0.804256
vt 0.135136 0.739119
vt 0.200274 0.739119
vt 0.269805 0.804501
vt 0.204830 0.804501
vt 0.204830 0.739526
vt 0.269805 0.739526
vt 0.736901 0.430901
vt 0.859099 0.430901
vt 0.859099 0.553099
vt 0.736901 0.553099
vt 0.736901 0.430901
vt 0.859099 0.430901
vt 0.859099 0.553099
vt 0.736901 0.553099
vt 0.736901 0.430901
vt 0.859099 0.430901
vt 0.859099 0.553099
vt 0.736901 0.553099
vt 0.736901 0.430901
vt 0.859099 0.430901
vt 0.859099 0.553099
vt 0.736901 0.553099
vt 0.736901 0.430901
vt 0.859099 0.430901
vt 0.859099 0.553099
vt 0.736901 0.553099
vt 0.736901 0.430901
vt 0.859099 0.430901
vt 0.859099 0.553099
vt 0.736901 0.553099
vt 0.736901 0.430901
vt 0.859099 0.430901
vt 0.859099 0.553099
vt 0.736901 0.553099
vt 0.736901 0.430901
vt 0.859099 0.430901
vt 0.859099 0.553099
vt 0.736901 0.553099
vt 0.736901 0.430901
vt 0.859099 0.430901
vt 0.859099 0.553099
vt 0.736901 0.553099
vt 0.736901 0.430901
vt 0.859099 0.430901
vt 0.859099 0.553099
vt 0.736901 0.553099
vt 0.736901 0.430901
vt 0.859099 0.430901
vt 0.859099 0.553099
vt 0.736901 0.553099
vt 0.736901 0.430901
vt 0.859099 0.430901
vt 0.859099 0.553099
vt 0.736901 0.553099
vt 0.736901 0.430901
vt 0.859099 0.430901
vt 0.859099 0.553099
vt 0.736901 0.553099
vt 0.054440 0.846393
vt 0.054440 0.900273
vt 0.000560 0.900273
vt 0.000560 0.846393
vt 0.045176 0.451628
vt 0.045176 0.497544
vt -0.000740 0.497544
vt -0.000740 0.451628
vt 0.101284 0.502113
vt 0.044705 0.502113
vt 0.044705 0.445534
vt 0.101284 0.445534
vt 0.701994 0.049835
vt 0.701994 0.116832
vt 0.634998 0.116832
vt 0.634998 0.049835
vt 0.622704 0.219461
vt 0.622704 0.280539
vt 0.561627 0.280539
vt 0.561627 0.219461
vt 0.782947 0.725647
vt 0.782947 0.806352
vt 0.702242 0.806352
vt 0.702242 0.725647
vt 0.567599 0.116832
vt 0.567599 0.049835
vt 0.634596 0.049835
vt 0.634596 0.116832
vt 0.722646 0.344037
vt 0.722646 0.413296
vt 0.653387 0.413296
vt 0.653387 0.344037
vt 0.620569 0.806352
vt 0.539864 0.806352
vt 0.539864 0.725647
vt 0.620569 0.725647
vt 0.510292 0.587600
vt 0.453760 0.587600
vt 0.453760 0.531067
vt 0.510292 0.531067
vt 0.504384 0.887705
vt 0.504384 0.971027
vt 0.421061 0.971027
vt 0.421061 0.887704
vt 0.101680 0.946013
vt 0.050320 0.946013
vt 0.050320 0.894653
vt 0.101680 0.894653
vt 0.652971 0.413296
vt 0.583712 0.413296
vt 0.583712 0.344037
vt 0.652971 0.344037
vt 0.561261 0.280539
vt 0.500183 0.280539
vt 0.500183 0.219461
vt 0.561261 0.219461
vt 0.513621 0.413296
vt 0.444362 0.413296
vt 0.444362 0.344037
vt 0.513621 0.344037
vt 0.701758 0.806352
vt 0.621053 0.806352
vt 0.621053 0.725647
vt 0.701758 0.725647
vt 0.684148 0.280539
vt 0.623071 0.280539
vt 0.623071 0.219461
vt 0.684148 0.219461
vt 0.864136 0.806352
vt 0.783431 0.806352
vt 0.783431 0.725647
vt 0.864136 0.725647
vt 0.893178 0.986804
vt 0.727506 0.986804
vt 0.727506 0.821131
vt 0.893178 0.821131
vt 0.726512 0.986804
vt 0.560839 0.986804
vt 0.560839 0.821131
vt 0.726512 0.821131
vt 0.567197 0.116832
vt 0.500201 0.116832
vt 0.500201 0.049835
vt 0.567197 0.049835
vt 0.499799 0.116832
vt 0.432803 0.116832
vt 0.432803 0.049835
vt 0.499799 0.049835
vt 0.144365 0.944812
vt 0.096868 0.944812
vt 0.096868 0.897315
vt 0.144365 0.897315
vt 0.624035 0.587600
vt 0.567503 0.587600
vt 0.567503 0.531067
vt 0.624035 0.531067
vt 0.438373 0.280539
vt 0.377296 0.280539
vt 0.377296 0.219461
vt 0.438373 0.219461
vt 0.432401 0.116832
vt 0.365404 0.116832
vt 0.365404 0.049835
vt 0.432401 0.049835
vt 0.443946 0.344037
vt 0.443946 0.413296
vt 0.374687 0.413296
vt 0.374687 0.344037
vt 0.365002 0.116832
vt 0.298006 0.116832
vt 0.298006 0.049835
vt 0.365002 0.049835
vt 0.376929 0.280539
vt 0.315852 0.280539
vt 0.315852 0.219461
vt 0.376929 0.219461
vt 0.680907 0.587600
vt 0.624375 0.587600
vt 0.624375 0.531067
vt 0.680907 0.531067
vn 0.0000 -1.0000 0.0000
vn 0.0000 1.0000 0.0000
vn 0.0000 0.0000 1.0000
usemtl None
s off
f 1/1/1 3/2/1 4/3/1 2/4/1
f 6/5/2 7/6/2 8/7/2 5/8/2
f 4/3/3 3/2/3 5/9/3 8/10/3
f 1/1/3 2/4/3 7/11/3 6/12/3
f 2/4/3 4/3/3 8/10/3 7/11/3
f 3/2/3 1/1/3 6/12/3 5/9/3
f 10/13/2 11/14/2 12/15/2 9/16/2
f 14/17/2 15/18/2 16/19/2 13/20/2
f 18/21/2 19/22/2 20/23/2 17/24/2
f 22/25/2 23/26/2 24/27/2 21/28/2
f 26/29/2 27/30/2 28/31/2 25/32/2
f 30/33/2 31/34/2 32/35/2 29/36/2
f 34/37/2 35/38/2 36/39/2 33/40/2
f 38/41/2 39/42/2 40/43/2 37/44/2
f 42/45/2 43/46/2 44/47/2 41/48/2
f 46/49/2 47/50/2 48/51/2 45/52/2
f 50/53/2 51/54/2 52/55/2 49/56/2
f 54/57/2 55/58/2 56/59/2 53/60/2
f 58/61/2 59/62/2 60/63/2 57/64/2
f 62/65/2 63/66/2 64/67/2 61/68/2
f 66/69/2 67/70/2 68/71/2 65/72/2
f 70/73/2 71/74/2 72/75/2 69/76/2
f 74/77/2 75/78/2 76/79/2 73/80/2
f 78/81/2 79/82/2 80/83/2 77/84/2
f 82/85/2 83/86/2 84/87/2 81/88/2
f 86/89/2 87/90/2 88/91/2 85/92/2
f 90/93/2 91/94/2 92/95/2 89/96/2
f 94/97/2 95/98/2 96/99/2 93/100/2
f 98/101/2 99/102/2 100/103/2 97/104/2
f 102/105/2 103/106/2 104/107/2 101/108/2
f 106/109/2 107/110/2 108/111/2 105/112/2
f 110/113/2 111/114/2 112/115/2 109/116/2
f 114/117/2 115/118/2 116/119/2 113/120/2
f 118/121/2 119/122/2 120/123/2 117/124/2
f 122/125/2 123/126/2 124/127/2 121/128/2
f 126/129/2 127/130/2 128/131/2 125/132/2
f 130/133/2 131/134/2 132/135/2 129/136/2
f 134/137/2 135/138/2 136/139/2 133/140/2
f 138/141/2 139/142/2 140/143/2 137/144/2
f 142/145/3 143/146/3 144/147/3 141/148/3
f 146/149/3 147/150/3 148/151/3 145/152/3
f 150/153/3 151/154/3 152/155/3 149/156/3
f 154/157/3 155/158/3 156/159/3 153/160/3
f 158/161/3 159/162/3 160/163/3 157/164/3
f 162/165/3 163/166/3 164/167/3 161/168/3
f 166/169/3 167/170/3 168/171/3 165/172/3
f 170/173/3 171/174/3 172/175/3 169/176/3
f 174/177/3 175/178/3 176/179/3 173/180/3
f 178/181/3 179/182/3 180/183/3 177/184/3
f 182/185/3 183/186/3 184/187/3 181/188/3
f 186/189/3 187/190/3 188/191/3 185/192/3
f 190/193/3 191/194/3 192/195/3 189/196/3
f 194/197/3 195/198/3 196/199/3 193/200/3
f 198/201/3 199/202/3 200/203/3 197/204/3
f 202/205/3 203/206/3 204/207/3 201/208/3
f 206/209/3 207/210/3 208/211/3 205/212/3
f 210/213/3 211/214/3 212/215/3 209/216/3
f 214/217/3 215/218/3 216/219/3 213/220/3
f 218/221/3 219/222/3 220/223/3 217/224/3
f 222/225/3 223/226/3 224/227/3 221/228/3
f 226/229/3 227/230/3 228/231/3 225/232/3
f 230/233/3 231/234/3 232/235/3 229/236/3
f 234/237/3 235/238/3 236/239/3 233/240/3
f 238/241/3 239/242/3 240/243/3 237/244/3
f 242/245/3 243/246/3 244/247/3 241/248/3
f 246/249/3 247/250/3 248/251/3 245/252/3
f 250/253/3 251/254/3 252/255/3 249/256/3
f 254/257/3 255/258/3 256/259/3 253/260/3
f 258/261/3 259/262/3 260/263/3 257/264/3
