# Blender v2.90.1 OBJ File: ''
# www.blender.org
mtllib Tbox.mtl
o Cube
v 0.486667 1.488520 -0.486667
v 1.000000 -1.000000 -1.000000
v 0.486667 1.488520 0.486667
v 1.000000 -1.000000 1.000000
v -0.486667 1.488520 -0.486667
v -1.000000 -1.000000 -1.000000
v -0.486667 1.488520 0.486667
v -1.000000 -1.000000 1.000000
v 1.000000 1.000000 1.000000
v -1.000000 1.000000 1.000000
v 1.000000 1.000000 -1.000000
v -1.000000 1.000000 -1.000000
v 0.641896 1.340794 -0.377292
v 0.641896 1.340794 0.377292
v 0.844771 1.147726 0.580167
v 0.844771 1.147726 -0.580167
v 1.108424 1.831018 -0.377292
v 1.108424 1.831018 0.377292
v 1.311298 1.637949 -0.580167
v 1.311298 1.637950 0.580167
v 0.375148 1.624298 0.644939
v -0.375148 1.624298 0.644939
v -0.571938 1.437021 0.841728
v 0.571938 1.437021 0.841728
v -0.375148 1.624298 -0.644939
v 0.375148 1.624298 -0.644939
v 0.571938 1.437021 -0.841728
v -0.571938 1.437021 -0.841728
v 0.375148 2.019219 0.644939
v -0.375148 2.019219 0.644939
v 0.571938 1.831942 0.841728
v -0.571938 1.831942 0.841728
v -0.375148 2.019219 -0.644939
v 0.375148 2.019219 -0.644939
v -0.571938 1.831942 -0.841728
v 0.571938 1.831942 -0.841728
vt 0.689167 0.564167
vt 0.810833 0.564167
vt 0.810833 0.685833
vt 0.689167 0.685833
vt 0.375000 0.750000
vt 0.625000 0.750000
vt 0.625000 1.000000
vt 0.375000 1.000000
vt 0.375000 0.000000
vt 0.625000 0.000000
vt 0.625000 0.250000
vt 0.375000 0.250000
vt 0.125000 0.500000
vt 0.375000 0.500000
vt 0.125000 0.750000
vt 0.625000 0.500000
vt 0.678508 0.519784
vt 0.821492 0.519784
vt 0.821492 0.519784
vt 0.678508 0.519784
vt 0.644404 0.697521
vt 0.644404 0.552479
vt 0.644404 0.552479
vt 0.644404 0.697521
vt 0.875000 0.500000
vt 0.875000 0.750000
vt 0.796894 0.705617
vt 0.821492 0.730216
vt 0.821492 0.730216
vt 0.796894 0.705617
vt 0.669763 0.672162
vt 0.669763 0.577839
vt 0.669763 0.577839
vt 0.669763 0.672162
vt 0.703106 0.705617
vt 0.678508 0.730216
vt 0.703106 0.544383
vt 0.796894 0.544383
vt 0.703106 0.705617
vt 0.678508 0.730216
vt 0.796894 0.544383
vt 0.703106 0.544383
vn 0.0000 1.0000 0.0000
vn 0.0000 0.0000 1.0000
vn -1.0000 0.0000 0.0000
vn 0.0000 -1.0000 0.0000
vn 1.0000 0.0000 0.0000
vn 0.0000 0.0000 -1.0000
vn 0.7244 -0.6894 0.0000
vn -0.6894 0.7244 0.0000
vn -0.7071 0.0000 -0.7071
vn 0.6894 0.7244 0.0000
vn -0.4250 0.4044 -0.8098
vn -0.4250 0.4044 0.8098
vn -0.7244 0.6894 0.0000
vn 0.0000 0.7590 -0.6511
vn -0.7258 0.6837 -0.0751
vn 0.0000 0.3405 0.9402
vn 0.7258 0.6837 -0.0751
vn 0.0000 0.7590 0.6511
vn 0.7258 0.6837 0.0751
vn 0.0000 0.3405 -0.9402
vn -0.7258 0.6837 0.0751
vn 0.0000 0.7244 0.6894
vn 0.0000 0.7244 -0.6894
vn -0.7071 0.0000 0.7071
vn 0.7071 0.0000 -0.7071
vn 0.7071 0.0000 0.7071
usemtl Material
s off
f 1/1/1 5/2/1 7/3/1 3/4/1
f 4/5/2 9/6/2 10/7/2 8/8/2
f 8/9/3 10/10/3 12/11/3 6/12/3
f 6/13/4 2/14/4 4/5/4 8/15/4
f 2/14/5 11/16/5 9/6/5 4/5/5
f 6/12/6 12/11/6 11/16/6 2/14/6
f 27/17/6 28/18/6 35/19/6 36/20/6
f 15/21/7 16/22/7 19/23/7 20/24/7
f 7/3/8 5/2/8 12/25/8 10/26/8
f 22/27/9 23/28/9 32/29/9 30/30/9
f 1/1/10 3/4/10 14/31/10 13/32/10
f 3/4/10 9/6/10 15/21/10 14/31/10
f 9/6/10 11/16/10 16/22/10 15/21/10
f 11/16/10 1/1/10 13/32/10 16/22/10
f 17/33/10 18/34/10 20/24/10 19/23/10
f 16/22/11 13/32/11 17/33/11 19/23/11
f 14/31/12 15/21/12 20/24/12 18/34/12
f 13/32/13 14/31/13 18/34/13 17/33/13
f 3/4/14 7/3/14 22/27/14 21/35/14
f 7/3/15 10/26/15 23/28/15 22/27/15
f 10/26/16 9/6/16 24/36/16 23/28/16
f 9/6/17 3/4/17 21/35/17 24/36/17
f 5/2/18 1/1/18 26/37/18 25/38/18
f 1/1/19 11/16/19 27/17/19 26/37/19
f 11/16/20 12/25/20 28/18/20 27/17/20
f 12/25/21 5/2/21 25/38/21 28/18/21
f 29/39/22 30/30/22 32/29/22 31/40/22
f 33/41/23 34/42/23 36/20/23 35/19/23
f 21/35/6 22/27/6 30/30/6 29/39/6
f 28/18/24 25/38/24 33/41/24 35/19/24
f 23/28/2 24/36/2 31/40/2 32/29/2
f 24/36/25 21/35/25 29/39/25 31/40/25
f 26/37/26 27/17/26 36/20/26 34/42/26
f 25/38/2 26/37/2 34/42/2 33/41/2
